# xmcd CD database file
#
# Track frame offsets:
#	150
#	25215
#	53296
#	71043
#	93237
#	101235
#	135375
#	162412
#	181950
#	190703
#	200919
#	224896
#
# Disc length: 3206 seconds
#
# Revision: 0
# Processed by: cddbd v1.5.2PL0 Copyright (c) Steve Scherf et al.
# Submitted via: CDex 1.51
#
DISCID=af0c840c
DTITLE=Sten Löfman - Glänta
DYEAR=2001
DGENRE=Blues
TTITLE0=Moln
TTITLE1=Stilla Regn
TTITLE2=The Wedding
TTITLE3=Anekdot
TTITLE4=Glänta
TTITLE5=Avsked
TTITLE6=Old Woman Blues
TTITLE7=Försoning
TTITLE8=Makh Jchi
TTITLE9=Ailu
TTITLE10=La Roca
TTITLE11=Höst
EXTD=YEAR: 2001
EXTT0=
EXTT1=
EXTT2=
EXTT3=
EXTT4=
EXTT5=
EXTT6=
EXTT7=
EXTT8=
EXTT9=
EXTT10=
EXTT11=
PLAYORDER=
